<svg width="163" height="41" viewBox="0 0 163 41" fill="none" xmlns="http://www.w3.org/2000/svg" class="uk-width-xsmall uk-svg"><path d="M17.0735 25.6782C18.6726 25.7041 22.1519 25.7604 22.1765 23.5284C22.2008 21.2187 18.7421 21.2897 17.117 21.3231C16.9497 21.3265 16.8019 21.3295 16.6793 21.3295V25.6737C16.7914 25.6737 16.9243 25.6758 17.0735 25.6782Z" fill="#222222"></path><path d="M16.9433 19.3525C18.2321 19.396 21.2664 19.4984 21.2915 17.4144C21.3158 15.3006 18.4341 15.3662 17.0747 15.3972C16.9339 15.4004 16.8093 15.4033 16.7061 15.4033V19.3452C16.7761 19.3469 16.8556 19.3496 16.9433 19.3525Z" fill="#222222"></path><path fill-rule="evenodd" clip-rule="evenodd" d="M35.2089 13.7407C35.2089 35.1396 18.0737 40.9586 18.0737 40.9586C18.0737 40.9586 0.938477 35.1396 0.938477 13.7407V6.04464C0.938477 5.21336 1.58205 4.51615 2.41334 4.46252C5.52395 4.32844 12.8983 3.68486 18.0737 0.922852C23.2491 3.68486 30.6234 4.32844 33.734 4.46252C34.5653 4.51615 35.2089 5.21336 35.2089 6.04464V13.7407ZM20.2457 13.1776C22.7932 13.4189 24.7776 14.2234 24.9921 16.5564C25.153 18.2726 24.429 19.2915 23.2759 19.8279C25.153 20.2837 26.3061 21.4368 26.0647 23.9307C25.7429 27.0413 23.4368 27.8725 20.1117 28.0334V31.305H18.1273V28.0871C17.6178 28.0871 17.0815 28.0871 16.5452 28.0603V31.305H14.5876V28.0334C14.1318 28.0066 10.9943 28.0334 10.9943 28.0334L11.0212 25.6469H13.2469V15.2156H10.7262V13.1508C10.7262 13.1508 14.2659 13.1239 14.6949 13.1239L14.6681 9.87925H16.6524V13.0703H18.2614V9.90607H20.2457V13.1776Z" fill="#222222"></path><path d="M69.504 27.9397C69.504 29.6559 69.1553 31.0771 68.485 32.2302C67.8146 33.3832 66.9028 34.3218 65.8034 35.019C64.6771 35.7162 63.4168 36.2257 61.9956 36.5475C60.5743 36.8424 59.0995 37.0033 57.6246 37.0033H45.209V5.81675H57.6246C58.8313 5.81675 60.0648 5.95082 61.3252 6.19216C62.5855 6.43351 63.7386 6.86256 64.7576 7.47932C65.7766 8.09608 66.6079 8.90055 67.2783 9.91955C67.9218 10.9385 68.2436 12.2525 68.2436 13.8346C68.2436 15.5776 67.7878 16.9989 66.8224 18.1251C65.8838 19.2514 64.6503 20.0827 63.1218 20.5653V20.6458C64.0067 20.8067 64.838 21.0748 65.6157 21.4771C66.3933 21.8793 67.0637 22.3888 67.6269 23.0056C68.19 23.6223 68.6459 24.3464 68.9945 25.1776C69.3162 25.9821 69.504 26.8938 69.504 27.9397ZM60.9498 14.8536C60.9498 13.8078 60.5475 13.0302 59.7431 12.5475C58.9386 12.0648 57.7319 11.8234 56.1498 11.8234H52.4492V18.2592H56.4984C57.9196 18.2592 58.9922 17.9642 59.7699 17.4011C60.5743 16.8112 60.9498 15.9531 60.9498 14.8536ZM61.9688 27.2156C61.9688 25.9285 61.4861 25.0168 60.5207 24.5341C59.5553 24.0246 58.2682 23.7832 56.6324 23.7832H52.4492V30.9162H56.6861C57.276 30.9162 57.8928 30.8626 58.5095 30.7553C59.1263 30.648 59.7162 30.4603 60.2257 30.219C60.7352 29.9508 61.1643 29.5754 61.4861 29.0927C61.8079 28.61 61.9688 27.9933 61.9688 27.2156Z" fill="#222222"></path><path d="M79.5062 8.06926C79.5062 8.63239 79.3989 9.14189 79.1844 9.62457C78.9699 10.1073 78.6749 10.5363 78.2995 10.8849C77.9241 11.2335 77.495 11.5017 76.9855 11.7162C76.476 11.9307 75.9397 12.0112 75.3766 12.0112C74.1967 12.0112 73.2313 11.6357 72.4269 10.8313C71.6224 10.0536 71.247 9.11508 71.247 8.04245C71.247 7.50614 71.3542 6.99664 71.5688 6.51396C71.7833 6.03127 72.0783 5.60222 72.4537 5.25362C72.8291 4.90501 73.285 4.61005 73.7676 4.39552C74.2771 4.181 74.8135 4.07373 75.4034 4.07373C75.9665 4.07373 76.5028 4.18099 77.0123 4.3687C77.5218 4.58323 77.9777 4.85139 78.3263 5.19999C78.7017 5.54859 78.9967 5.97764 79.2112 6.46032C79.3989 6.96982 79.5062 7.50613 79.5062 8.06926ZM71.7565 15.0681H78.9967V37.0033H71.7565V15.0681Z" fill="#222222"></path><path d="M92.0827 20.4313V28.8246C92.0827 29.8704 92.2704 30.6212 92.6727 31.1575C93.0749 31.667 93.7721 31.9352 94.8179 31.9352C95.1665 31.9352 95.5419 31.9084 95.9442 31.8547C96.3464 31.8011 96.6682 31.7207 96.9364 31.5866L97.0168 36.8693C96.5073 37.057 95.8905 37.191 95.1129 37.3251C94.3352 37.4592 93.5844 37.5128 92.8067 37.5128C91.3319 37.5128 90.0984 37.3251 89.1062 36.9497C88.114 36.5743 87.3095 36.0648 86.6928 35.3676C86.1028 34.6704 85.647 33.8659 85.3788 32.9005C85.1107 31.9352 84.9766 30.8894 84.9766 29.7095V20.4313H81.5174V15.0681H85.0034V9.30278H92.1095V15.0681H97.2581V20.4313H92.0827Z" fill="#222222"></path><path d="M123.403 37.057C121.365 37.5665 119.14 37.8078 116.726 37.8078C114.232 37.8078 111.926 37.4056 109.835 36.6279C107.743 35.8235 105.92 34.724 104.418 33.276C102.916 31.8279 101.71 30.1117 100.878 28.1005C100.02 26.0894 99.5911 23.8369 99.5911 21.3698C99.5911 18.876 100.02 16.6235 100.905 14.5855C101.763 12.5475 102.97 10.8313 104.498 9.41004C106.027 7.98881 107.824 6.88938 109.861 6.13854C111.926 5.3877 114.125 4.98546 116.512 4.98546C118.979 4.98546 121.258 5.36088 123.377 6.11172C125.495 6.86256 127.211 7.85473 128.525 9.14189L123.779 14.5586C123.055 13.7005 122.063 13.0033 120.883 12.467C119.676 11.9307 118.308 11.6626 116.78 11.6626C115.466 11.6626 114.232 11.9039 113.133 12.3866C112.007 12.8693 111.041 13.5397 110.237 14.4246C109.406 15.2827 108.762 16.3285 108.333 17.5084C107.877 18.6883 107.636 20.0022 107.636 21.3966C107.636 22.8447 107.85 24.1586 108.253 25.3654C108.655 26.5721 109.272 27.6179 110.076 28.476C110.88 29.3341 111.873 30.0313 113.079 30.514C114.259 30.9966 115.627 31.238 117.155 31.238C118.04 31.238 118.872 31.1843 119.676 31.0503C120.454 30.9162 121.205 30.7017 121.875 30.4067V24.7218H115.922V18.581H128.793V35.0994C127.211 35.9039 125.441 36.5475 123.403 37.057Z" fill="#222222"></path><path d="M155.904 25.9553C155.904 27.752 155.582 29.3609 154.939 30.8358C154.295 32.2838 153.41 33.5174 152.284 34.5363C151.158 35.5553 149.871 36.333 148.396 36.8961C146.921 37.4592 145.366 37.7274 143.676 37.7274C142.04 37.7274 140.458 37.4592 138.983 36.8961C137.509 36.333 136.195 35.5553 135.095 34.5363C133.996 33.5174 133.111 32.2838 132.467 30.8358C131.824 29.3877 131.502 27.752 131.502 25.9553C131.502 24.1587 131.824 22.5498 132.467 21.1017C133.111 19.6537 133.996 18.447 135.095 17.4548C136.195 16.4626 137.482 15.6849 138.983 15.1754C140.458 14.6391 142.04 14.371 143.676 14.371C145.339 14.371 146.921 14.6391 148.396 15.1754C149.871 15.7118 151.158 16.4626 152.284 17.4548C153.41 18.447 154.268 19.6805 154.939 21.1017C155.582 22.5498 155.904 24.1587 155.904 25.9553ZM148.959 25.9553C148.959 25.2581 148.852 24.5609 148.61 23.8905C148.369 23.2201 148.047 22.6302 147.591 22.0939C147.162 21.5844 146.599 21.1553 145.956 20.8335C145.312 20.5118 144.561 20.3509 143.703 20.3509C142.845 20.3509 142.094 20.5118 141.451 20.8335C140.807 21.1553 140.271 21.5844 139.842 22.0939C139.413 22.6034 139.091 23.1933 138.876 23.8905C138.662 24.5609 138.554 25.2581 138.554 25.9553C138.554 26.6525 138.662 27.3498 138.876 28.0201C139.091 28.6905 139.413 29.3073 139.868 29.8436C140.297 30.3799 140.861 30.8358 141.504 31.1576C142.148 31.4794 142.899 31.6403 143.757 31.6403C144.615 31.6403 145.366 31.4794 146.009 31.1576C146.653 30.8358 147.189 30.4067 147.645 29.8436C148.074 29.3073 148.423 28.6905 148.637 28.0201C148.852 27.3498 148.959 26.6525 148.959 25.9553Z" fill="#222222"></path><path d="M159.578 32.7129C160.946 32.7129 162.099 33.7855 162.099 35.2068C162.099 36.6548 160.919 37.7274 159.578 37.7274C158.21 37.7274 157.03 36.6548 157.03 35.2068C157.03 33.7587 158.184 32.7129 159.578 32.7129ZM159.578 33.1152C158.425 33.1152 157.513 34.0269 157.513 35.2068C157.513 36.4403 158.425 37.2984 159.578 37.2984C160.731 37.2984 161.616 36.4135 161.616 35.2068C161.616 34.0001 160.704 33.1152 159.578 33.1152ZM159.042 36.6548H158.586V33.7587H159.685C160.382 33.7587 160.704 34.0269 160.704 34.59C160.704 35.0995 160.382 35.3408 159.953 35.3945L160.785 36.6548H160.302L159.524 35.3945H159.015V36.6548H159.042ZM159.042 35.0459H159.578C160.114 35.0459 160.302 34.885 160.302 34.5632C160.302 34.295 160.168 34.1341 159.658 34.1341H159.068V35.0459H159.042Z" fill="#222222"></path></svg>