<svg width="224" height="40" viewBox="0 0 224 40" fill="none" xmlns="http://www.w3.org/2000/svg" class="uk-width-xsmall uk-svg"><path d="M45.1582 11.1922C36.983 11.1922 30.6569 17.3236 30.6569 25.5961C30.6569 33.8686 36.8857 40 45.1582 40C53.4307 40 59.7567 33.7713 59.7567 25.5961C59.7567 17.4209 53.528 11.1922 45.1582 11.1922ZM45.2555 33.9659C40.5839 33.9659 37.2749 30.365 37.2749 25.4988C37.2749 20.6326 40.5839 17.0316 45.2555 17.0316C49.927 17.0316 53.3333 20.6326 53.3333 25.4988C53.3333 30.365 49.8297 33.9659 45.2555 33.9659ZM61.5085 17.4209H65.4988V39.4161H72.0195V11.6788H61.5085V17.4209ZM14.4039 17.129C17.8102 17.129 20.5353 19.1727 21.5085 22.2871H28.3212C27.056 15.6691 21.6058 11.0949 14.4039 11.0949C6.32604 11.1922 0 17.3236 0 25.5961C0 33.8686 6.22871 40 14.5012 40C21.5085 40 27.056 35.5231 28.3212 28.8078H21.5085C20.5353 31.9221 17.8102 34.0633 14.5012 34.0633C9.82968 34.0633 6.52068 30.4623 6.52068 25.5961C6.52068 20.7299 9.73236 17.129 14.4039 17.129ZM184.234 22.871L179.465 22.1898C177.226 21.8978 175.572 21.1192 175.572 19.3674C175.572 17.4209 177.713 16.4477 180.535 16.4477C183.65 16.4477 185.693 17.8102 186.083 19.9513H192.311C191.63 14.4039 187.348 11.0949 180.73 11.0949C173.917 11.0949 169.343 14.5985 169.343 19.562C169.343 24.2336 172.263 27.056 178.297 27.8346L183.066 28.5158C185.402 28.8078 186.667 29.781 186.667 31.4355C186.667 33.674 184.428 34.5499 181.314 34.5499C177.518 34.5499 175.377 32.9927 174.988 30.6569H168.662C169.246 36.1071 173.528 39.9027 181.217 39.9027C188.224 39.9027 192.993 36.691 192.993 31.1436C192.993 26.2774 189.586 23.747 184.234 22.871ZM68.8078 0.291971C66.472 0.291971 64.6229 2.0438 64.6229 4.37956C64.6229 6.71533 66.3747 8.46715 68.8078 8.46715C71.1436 8.46715 72.9927 6.71533 72.9927 4.37956C72.9927 2.0438 71.1436 0.291971 68.8078 0.291971ZM163.601 21.2165C163.601 15.1825 159.903 11.1922 152.214 11.1922C144.915 11.1922 140.827 14.8905 139.951 20.5353H146.375C146.667 18.2968 148.419 16.545 152.117 16.545C155.426 16.545 156.983 18.0049 156.983 19.7567C156.983 22.0925 154.063 22.6764 150.365 23.0657C145.401 23.6496 139.27 25.3041 139.27 31.7275C139.27 36.691 142.968 39.9027 148.905 39.9027C153.577 39.9027 156.399 37.9562 157.859 34.9392C158.054 37.6642 160.097 39.4161 163.017 39.4161H166.813V33.674H163.601V21.2165ZM157.178 28.1265C157.178 31.8248 153.966 34.5499 149.976 34.5499C147.543 34.5499 145.499 33.5766 145.499 31.3382C145.499 28.6131 148.808 27.8346 151.825 27.5426C154.745 27.2506 156.302 26.6667 157.178 25.4015V28.1265ZM122.92 11.1922C119.319 11.1922 116.302 12.6521 114.161 15.1825V0H107.737V39.4161H114.063V35.8151C116.204 38.4428 119.319 40 122.92 40C130.706 40 136.545 33.8686 136.545 25.5961C136.545 17.3236 130.608 11.1922 122.92 11.1922ZM121.947 33.9659C117.275 33.9659 113.966 30.365 113.966 25.4988C113.966 20.6326 117.372 17.0316 122.044 17.0316C126.715 17.0316 130.024 20.6326 130.024 25.4988C130.024 30.4623 126.618 33.9659 121.947 33.9659ZM92.2628 11.1922C88.0779 11.1922 85.3528 12.944 83.6983 15.2798V11.6788H77.275V39.4161H83.6983V24.3309C83.6983 20.0487 86.4234 17.129 90.4136 17.129C94.1119 17.129 96.4477 19.7567 96.4477 23.5523V39.4161H102.871V23.0657C102.871 16.0584 99.2701 11.1922 92.2628 11.1922ZM223.747 24.7202C223.747 16.7397 217.908 11.1922 210.122 11.1922C201.849 11.1922 195.718 17.4209 195.718 25.5961C195.718 34.2579 202.238 40 210.219 40C216.934 40 222.19 36.0097 223.552 30.365H216.837C215.864 32.7981 213.528 34.2579 210.316 34.2579C206.131 34.2579 203.017 31.7275 202.336 27.1533H223.747V24.7202ZM202.725 22.5791C203.796 18.6861 206.618 16.837 210.024 16.837C213.723 16.837 216.448 18.8808 217.129 22.5791H202.725V22.5791Z" fill="#222222"></path></svg>