<svg width="183" height="49" viewBox="0 0 183 49" fill="none" xmlns="http://www.w3.org/2000/svg" class="uk-width-xsmall uk-svg"><path d="M34.218 24.2212L48.4273 38.4305H43.3994C42.5523 38.4305 41.7052 38.0752 41.104 37.4741L27.9058 24.2212L41.1587 10.941C41.7599 10.3398 42.5796 9.98459 43.454 10.0119H48.4273L34.218 24.2212ZM8.17678 10.941C7.57562 10.3398 6.75585 9.98459 5.88143 10.0119H0.880859L15.0901 24.2212L0.880859 38.4305H5.90876C6.75585 38.4305 7.60294 38.0752 8.2041 37.4741L21.4297 24.1939L8.17678 10.941ZM24.6541 27.4729L11.3739 40.7258C10.7727 41.327 10.4448 42.1467 10.4448 43.0212V48.0217L24.6541 33.8125L38.8634 48.0217V42.9938C38.8634 42.1467 38.5354 41.2997 37.9343 40.6985L24.6541 27.4729ZM24.6541 20.9695L37.9343 7.71657C38.5354 7.11541 38.8634 6.29564 38.8634 5.42123V0.420654L24.6541 14.6299L10.4448 0.420654V5.42123C10.4448 6.26832 10.7727 7.11541 11.3739 7.71657L24.6541 20.9695Z" fill="url(#paint0_linear_307_127)"></path><path fill-rule="evenodd" clip-rule="evenodd" d="M154.7 7.32032V36.5313C154.673 36.9958 154.864 37.4604 155.192 37.8156C155.52 38.1708 155.985 38.3621 156.449 38.3621H156.968C157.46 38.3621 157.925 38.1708 158.253 37.8156C158.58 37.4604 158.772 36.9958 158.772 36.5313V7.32032H162.16V37.2964C162.16 39.5645 160.357 41.3953 158.089 41.4499H155.493C154.372 41.4499 153.307 41.04 152.514 40.2476C151.722 39.4551 151.285 38.4168 151.285 37.2964V7.32032H154.7ZM178.801 6.99241C181.069 7.04706 182.9 9.17846 182.9 11.4738V14.179C182.9 14.5616 182.654 14.8895 182.272 14.9988L179.457 15.7912V11.911C179.457 10.9273 178.637 10.1075 177.654 10.1075C176.67 10.1075 175.85 10.9 175.85 11.911V15.1354C175.85 17.1302 177.326 19.6715 177.326 19.6715L181.37 27.4592C183.01 30.547 182.873 32.815 182.873 32.815V37.1325C182.873 38.2528 182.436 39.3458 181.643 40.1656C180.851 40.9854 179.758 41.4226 178.61 41.4499H176.479C174.183 41.3133 172.38 39.4278 172.38 37.1325V32.2959C172.38 31.9133 172.626 31.5854 173.008 31.4761L175.823 30.6837V36.586C175.823 37.5697 176.643 38.3621 177.654 38.3621C178.637 38.3621 179.457 37.5424 179.43 36.5313V32.6784C179.43 30.711 177.954 28.0877 177.954 28.0877L173.965 20.2999C172.325 17.2122 172.462 14.9441 172.462 14.9441V11.4738C172.462 9.12381 174.347 6.99241 176.725 6.99241H178.801ZM114.832 6.99241C117.128 7.10172 118.931 9.0145 118.931 11.3098V37.2418C118.904 39.5098 117.1 41.3679 114.832 41.4772H112.236C109.914 41.4499 108.028 39.5644 108.001 37.2418V11.2825C108.001 10.1622 108.438 9.06915 109.231 8.24939C110.023 7.42962 111.116 6.99241 112.264 6.96509L114.832 6.99241ZM75.8934 7.32032L75.0736 10.1622C74.9643 10.5447 74.6364 10.7907 74.2539 10.7907H68.8161V21.6662H74.4452L73.6254 24.5081C73.5161 24.8633 73.1882 25.1366 72.8056 25.1366H68.8161V37.679H75.8934L75.101 40.4935C74.9917 40.8761 74.6638 41.122 74.2812 41.122H65.4277V7.32032H75.8934ZM136.31 7.32032C138.66 7.34765 140.518 9.23311 140.518 11.5558V36.8592C140.518 39.1819 138.633 41.0947 136.31 41.0947H129.752V7.32032H136.31ZM91.6602 18.1959L94.7754 7.32032H98.2457L93.4091 24.2348L98.273 41.1493H94.8027L91.6602 30.2464L88.5451 41.122H85.0748L89.9114 24.2348L85.0475 7.32032H88.5178L91.6602 18.1959ZM113.685 38.4168C114.176 38.4168 114.641 38.1982 114.969 37.8429C115.297 37.4877 115.488 37.0232 115.461 36.5313V11.911C115.488 11.4191 115.297 10.9546 114.969 10.5994C114.641 10.2442 114.176 10.0529 113.685 10.0255H113.165C112.154 10.0802 111.362 10.9 111.362 11.911V36.5313C111.362 37.5424 112.154 38.3621 113.165 38.4168H113.685ZM135.354 37.7063C136.31 37.7063 137.157 37.2145 137.157 35.9028V12.5395C137.157 11.2825 136.31 10.7907 135.354 10.7907H133.14V37.7063H135.354Z" fill="#222222"></path><defs><linearGradient id="paint0_linear_307_127" x1="0.865005" y1="24.2161" x2="30.9282" y2="24.2161" gradientUnits="userSpaceOnUse"><stop stop-color="#222222"></stop><stop offset="1" stop-color="#222222"></stop></linearGradient></defs></svg>