<svg width="128" height="38" viewBox="0 0 128 38" fill="none" xmlns="http://www.w3.org/2000/svg">
<path d="M23.952 36.96V10.56H0V36.96H6.864V17.136H17.088V36.96H23.952Z" fill="#0F051D"/>
<path d="M40.7944 9.984C33.0184 9.984 27.1624 15.936 27.1624 23.808C27.1624 31.632 32.9704 37.584 40.9864 37.584C47.4184 37.584 53.1304 33.744 54.2344 27.264H47.1304C46.5064 30.144 43.9624 31.728 41.0344 31.728C37.1944 31.728 34.4104 29.136 34.1704 25.056H54.2824C54.3784 24.24 54.4744 23.184 54.2824 21.792C53.4664 14.592 47.6104 9.984 40.7944 9.984ZM40.8904 15.648C43.6744 15.648 46.4584 17.232 47.0824 20.496H34.6504C35.4664 17.52 37.8184 15.648 40.8904 15.648Z" fill="#0F051D"/>
<path d="M73.5536 17.136V10.56H57.4256V36.96H64.2896V17.136H73.5536Z" fill="#0F051D"/>
<path d="M82.6665 21.024V0H75.8025V36.96H82.6665V25.968L91.9305 36.96H100.618L89.0985 23.28L99.7065 10.56H91.1145L82.6665 21.024Z" fill="#0F051D"/>
<path d="M113.46 9.984C105.876 9.984 99.6836 15.84 99.6836 23.76C99.6836 31.68 105.78 37.584 113.46 37.584C121.14 37.584 127.188 31.728 127.188 23.808C127.188 15.84 121.044 9.984 113.46 9.984ZM113.46 16.512C117.3 16.512 120.276 19.488 120.276 23.808C120.276 28.128 117.3 31.056 113.46 31.056C109.668 31.056 106.644 28.128 106.644 23.808C106.644 19.44 109.62 16.512 113.46 16.512Z" fill="#0F051D"/>
</svg>
