<svg width="253" height="48" viewBox="0 0 253 48" fill="none" xmlns="http://www.w3.org/2000/svg" class="uk-width-xsmall uk-svg"><path fill-rule="evenodd" clip-rule="evenodd" d="M1.84022 16.1022L0.15332 7.82105L2.76074 0.15332L19.1697 6.2876L32.6649 6.28751L48.9223 0.266243L49.0737 0.15332L49.0908 0.203822L49.2272 0.15332L49.1044 0.243586L51.6807 7.82105L49.9938 16.1022L51.2206 16.869L49.5337 18.0958L50.7606 19.0159L49.0737 20.5495L50.1471 21.1629L47.8465 23.9233L51.3736 34.8115L42.0188 34.8115L38.7975 34.89L41.8657 34.9649L36.6294 42.7444L36.6519 42.9395L30.3644 45.853V44.0127L29.7508 39.5656L35.6064 35.0613L35.5825 34.8503L35.5787 34.9649L29.6689 39.5109L29.7508 39.5656L30.2109 44.0129L29.7508 43.5528H22.0831L21.8259 43.81L21.8014 43.9882L22.0835 43.706H29.7513L30.2113 44.166V46.0063L36.6519 42.9395L34.5053 44.7795L29.9046 47.8466H22.0835L17.6363 44.7795L15.3352 42.9393L21.6235 46.0063V45.9333L15.3352 42.9393L16.2416 35.0901L16.227 35.0614L15.3352 42.9393L3.83373 46.1598L0.613281 34.9649L9.96791 34.8115L10.0676 34.9624L13.1127 34.8882L9.96791 34.8115L0.613281 34.8115L4.1047 24.0336L1.84022 21.3163L2.9137 20.5495L1.2268 19.0159L2.45364 18.0958L0.766739 16.869L1.84022 16.1022ZM11.502 25.6103L22.6877 26.0638L22.6958 26.2175L11.5811 25.7669L11.502 25.6103ZM28.677 29.9042V38.9274L28.9844 26.2245L30.0579 32.0505L30.2032 32.008L30.2367 31.9978L35.732 30.3643L35.5838 34.8117L35.7364 34.8154L35.8848 30.3641L31.8981 28.5241L31.8704 28.582L31.7445 28.5239L30.1685 31.8193L29.1377 26.2237L40.3307 25.77L40.4854 25.6101L37.271 20.865L40.3326 25.7637L28.9844 26.2245L28.9829 26.2336L28.677 29.9042ZM16.2508 34.9647L16.2555 34.9648L16.252 35L16.2508 34.9647ZM16.2518 34.8425L16.2555 34.9648L16.2505 34.9551L16.2479 34.877L16.2518 34.8425ZM11.6652 25.9323L11.6595 25.9213L16.1026 30.3643L16.2508 34.8116L16.2457 34.8118L16.1026 30.5177L11.6652 25.9323ZM16.1026 30.3643L20.0898 28.5239L21.7767 32.0511L16.1026 30.3643ZM29.9094 14.349L38.9855 7.67943L29.9716 14.404L29.9094 14.349ZM22.2365 39.5657L15.3386 42.938L22.2036 39.804L22.2365 39.5657Z" fill="#222222"></path><path d="M36.6519 42.9395L42.0188 34.8115L51.3734 34.9649L48.153 46.1598L36.6519 42.9395Z" fill="#222222"></path><path d="M78.9426 12.2683H75.7222C75.7222 12.2683 75.5688 12.2683 75.5688 12.4217L72.8085 21.4696C72.8085 21.623 72.6551 21.623 72.5017 21.4696L69.7414 12.4217C69.7414 12.4217 69.7414 12.2683 69.588 12.2683H64.834C64.834 12.2683 64.6807 12.2683 64.6807 12.4217V35.4249C64.6807 35.4249 64.6807 35.5782 64.834 35.5782H68.2078C68.2078 35.5782 68.3612 35.5782 68.3612 35.4249V17.7891C68.3612 17.6358 68.5145 17.6358 68.6679 17.7891L71.4283 26.837L71.5816 27.4505C71.5816 27.4505 71.5816 27.6038 71.735 27.6038H74.342C74.342 27.6038 74.4954 27.6038 74.4954 27.4505L74.6487 26.837L77.4091 17.7891C77.4091 17.6358 77.7158 17.6358 77.7158 17.7891V35.2715C77.7158 35.2715 77.7158 35.4249 77.8692 35.4249H81.243C81.243 35.4249 81.3963 35.4249 81.3963 35.2715V12.2683C81.3963 12.2683 81.3963 12.115 81.243 12.115H78.9426V12.2683Z" fill="#222222"></path><path d="M92.9235 31.8977V24.8434C92.9235 24.8434 92.9235 24.6901 93.0768 24.6901H101.971C101.971 24.6901 102.125 24.6901 102.125 24.5367V21.623C102.125 21.623 102.125 21.4696 101.971 21.4696H93.0768C93.0768 21.4696 92.9235 21.4696 92.9235 21.3163V15.1821C92.9235 15.1821 92.9235 15.0287 93.0768 15.0287H103.198C103.198 15.0287 103.352 15.0287 103.352 14.8754V12.2683C103.352 12.2683 103.352 12.115 103.198 12.115H89.5497C89.5497 12.115 89.3963 12.115 89.3963 12.2683V34.9648C89.3963 34.9648 89.3963 35.1182 89.5497 35.1182H103.505C103.505 35.1182 103.658 35.1182 103.658 34.9648V31.8977C103.658 31.8977 103.658 31.7444 103.505 31.7444L92.9235 31.8977Z" fill="#222222"></path><path d="M127.454 12.115H111.812C111.812 12.115 111.658 12.115 111.658 12.2683V15.1821C111.658 15.1821 111.658 15.3354 111.812 15.3354H117.946V35.2715C117.946 35.2715 117.946 35.4249 118.099 35.4249H121.473C121.473 35.4249 121.626 35.4249 121.626 35.2715V15.3354H127.761C127.761 15.3354 127.914 15.3354 127.914 15.1821L127.454 12.115Z" fill="#222222"></path><path d="M150.023 35.4249H153.09C153.243 35.4249 153.243 35.2715 153.243 35.2715L146.955 12.2683C146.955 12.2683 146.955 12.115 146.802 12.115H142.355C142.355 12.115 142.201 12.115 142.201 12.2683L135.914 35.2715C135.914 35.4249 135.914 35.4249 136.067 35.4249H139.134C139.134 35.4249 139.288 35.4249 139.288 35.2715L141.128 28.5239C141.128 28.5239 141.128 28.3706 141.281 28.3706H148.029C148.029 28.3706 148.182 28.3706 148.182 28.5239L150.023 35.4249C149.869 35.4249 149.869 35.4249 150.023 35.4249ZM142.048 25.3035L144.502 16.4089C144.502 16.2556 144.655 16.2556 144.808 16.4089L147.262 25.3035C147.262 25.4568 147.262 25.4568 147.109 25.4568H142.201C142.048 25.4568 142.048 25.3035 142.048 25.3035Z" fill="#222222"></path><path d="M172.438 12.2683C172.284 12.2683 172.284 12.2683 172.438 12.2683L169.524 21.3163C169.524 21.4696 169.371 21.4696 169.217 21.3163L166.457 12.2683C166.457 12.2683 166.457 12.115 166.304 12.115H161.396C161.396 12.115 161.243 12.115 161.243 12.2683V35.2715C161.243 35.2715 161.243 35.4249 161.396 35.4249H164.77C164.77 35.4249 164.923 35.4249 164.923 35.2715V17.7891C164.923 17.6358 165.077 17.6358 165.23 17.7891L167.991 26.837L168.144 27.4505C168.144 27.4505 168.144 27.6038 168.297 27.6038H170.904C170.904 27.6038 171.058 27.6038 171.058 27.4505L171.211 26.837L173.971 17.7891C173.971 17.6358 174.278 17.6358 174.278 17.7891V35.2715C174.278 35.2715 174.278 35.4249 174.431 35.4249H177.805C177.805 35.4249 177.959 35.4249 177.959 35.2715V12.2683C177.959 12.2683 177.959 12.115 177.805 12.115H172.438V12.2683Z" fill="#222222"></path><path d="M200.067 35.4249H203.134C203.288 35.4249 203.288 35.2715 203.288 35.2715L197 12.2683C197 12.2683 197 12.115 196.847 12.115H192.4C192.4 12.115 192.246 12.115 192.246 12.2683L185.959 35.2715C185.959 35.4249 185.959 35.4249 186.112 35.4249H189.179C189.179 35.4249 189.332 35.4249 189.332 35.2715L191.173 28.5239C191.173 28.5239 191.173 28.3706 191.326 28.3706H198.074C198.074 28.3706 198.227 28.3706 198.227 28.5239L200.067 35.4249ZM192.246 25.3035L194.7 16.4089C194.7 16.2556 194.853 16.2556 195.007 16.4089L197.46 25.3035C197.46 25.4568 197.46 25.4568 197.307 25.4568H192.4C192.246 25.4568 192.246 25.3035 192.246 25.3035Z" fill="#222222"></path><path d="M223.249 24.23C221.869 23.3099 220.336 22.6965 218.955 21.9297C218.035 21.4696 217.115 21.0096 216.195 20.2428C214.815 19.1693 215.122 16.869 216.502 15.9489C218.495 14.5687 221.869 15.3354 222.329 18.0958C222.329 18.0958 222.329 18.2492 222.483 18.2492H225.55C225.703 18.2492 225.703 18.2492 225.703 18.0958C225.55 16.2556 224.783 14.5687 223.403 13.6485C222.176 12.7284 220.642 12.115 219.109 12.115C210.981 12.115 210.214 20.7028 214.661 23.3099C215.122 23.6166 219.415 25.7636 220.949 26.6837C222.483 27.6038 222.943 29.2907 222.329 30.6709C221.716 31.8977 220.182 32.8179 218.649 32.6645C216.962 32.5112 215.582 31.591 215.122 30.2108C214.968 29.9041 214.968 29.4441 214.968 29.2907C214.968 29.2907 214.968 29.1374 214.815 29.1374H211.441C211.441 29.1374 211.288 29.1374 211.288 29.2907C211.288 31.7444 211.901 32.9712 213.588 34.1981C215.122 35.4249 216.808 35.885 218.495 35.885C223.096 35.885 225.396 33.2779 225.856 30.6709C226.316 28.0639 225.55 25.7636 223.249 24.23Z" fill="#222222"></path><path d="M252.233 35.1182L240.731 23.3099V23.1565L251.16 12.4217C251.313 12.2683 251.16 12.2683 251.006 12.2683H246.712C246.712 12.2683 246.712 12.2683 246.559 12.2683L237.818 21.3163C237.664 21.4696 237.664 21.3163 237.664 21.1629V12.2683C237.664 12.2683 237.664 12.115 237.511 12.115H234.137C234.137 12.115 233.984 12.115 233.984 12.2683V35.2715C233.984 35.2715 233.984 35.4249 234.137 35.4249H237.511C237.511 35.4249 237.664 35.4249 237.664 35.2715V25.1501C237.664 24.9968 237.818 24.9968 237.818 24.9968L247.786 35.2715C247.786 35.2715 247.786 35.2715 247.939 35.2715H252.233C252.233 35.2715 252.386 35.1182 252.233 35.1182Z" fill="#222222"></path></svg>