<svg width="246" height="62" viewBox="0 0 246 62" fill="none" xmlns="http://www.w3.org/2000/svg" class="uk-width-xsmall uk-svg"><path d="M20.1625 21.2694C23.0225 21.0533 27.2544 20.2747 31.3681 17.5529C35.4882 20.2788 39.7277 21.0556 42.5936 21.2704C42.4609 26.5072 42.2009 30.2571 41.7857 33.0184C41.2945 36.2849 40.625 37.8727 39.9386 38.8265C39.268 39.7585 38.3764 40.389 36.6123 41.3639C36.3334 41.5181 36.036 41.6791 35.7213 41.8496L35.7195 41.8505C34.5063 42.5076 33.0353 43.3043 31.3682 44.3828C29.7038 43.3059 28.2355 42.51 27.0245 41.8535C26.7078 41.6819 26.4086 41.5197 26.1282 41.3646C24.3668 40.3901 23.478 39.7601 22.8096 38.8292C22.125 37.8755 21.4573 36.2875 20.9678 33.0199C20.5539 30.2579 20.295 26.5071 20.1625 21.2694Z" fill="#222222"></path><path fill-rule="evenodd" clip-rule="evenodd" d="M20.7182 0H40.9871C52.4295 0 61.7054 9.27586 61.7054 20.7182V40.9871C61.7054 52.4295 52.4295 61.7054 40.9871 61.7054H20.7182C9.27586 61.7054 0 52.4295 0 40.9871V20.7182C0 9.27586 9.27586 0 20.7182 0ZM33.3113 11.4516C32.1862 10.5119 30.5499 10.5119 29.4247 11.4516C24.7949 15.3186 19.5127 15.2927 17.3604 15.2821C17.2567 15.2816 17.1603 15.2811 17.0716 15.2811C16.2596 15.2811 15.4816 15.6068 14.9118 16.1853C14.3421 16.7637 14.0281 17.5465 14.0404 18.3584C14.1444 25.2531 14.4196 30.2337 14.9717 33.9183C15.5231 37.5988 16.3895 40.2827 17.8844 42.365C19.3956 44.47 21.3318 45.6401 23.1932 46.6699C23.5245 46.8531 23.8587 47.0346 24.198 47.2189C25.8094 48.094 27.5344 49.0308 29.601 50.5133C30.6572 51.271 32.0789 51.271 33.1351 50.5133C35.2036 49.0295 36.9309 48.0922 38.545 47.2164C38.8825 47.0333 39.2152 46.8527 39.545 46.6705C41.4076 45.6412 43.3461 44.4717 44.86 42.3677C46.3582 40.2856 47.2277 37.6015 47.7813 33.9199C48.3355 30.2345 48.6119 25.2534 48.7158 18.3584C48.7281 17.5465 48.4141 16.7637 47.8444 16.1853C47.2746 15.6068 46.4966 15.2811 45.6847 15.2811C45.595 15.2811 45.4976 15.2816 45.393 15.2821C43.2229 15.2926 37.941 15.3183 33.3113 11.4516Z" fill="#222222"></path><path d="M82.4037 24.8418H75.7051V20.8939H93.9464V24.8418H87.2477V41.8277H82.4037V24.8418ZM98.5356 27.8621C99.0935 27.0844 99.8415 26.4961 100.778 26.0973C101.735 25.699 102.831 25.4993 104.067 25.4993V29.806C103.55 29.7659 103.201 29.7459 103.021 29.7459C101.685 29.7459 100.639 30.1247 99.8809 30.8824C99.1233 31.62 98.7444 32.7364 98.7444 34.2317V41.8277H94.0795V25.7385H98.5356V27.8621ZM121.373 25.7385V41.8277H116.946V39.9135C116.328 40.611 115.591 41.1495 114.733 41.5284C113.876 41.8872 112.949 42.0669 111.952 42.0669C109.839 42.0669 108.165 41.4586 106.929 40.2426C105.693 39.0266 105.075 37.2223 105.075 34.8297V25.7385H109.739V34.1419C109.739 36.7335 110.826 38.0297 112.999 38.0297C114.115 38.0297 115.013 37.6709 115.691 36.9527C116.368 36.2151 116.707 35.129 116.707 33.6932V25.7385H121.373ZM129.313 42.0669C127.977 42.0669 126.671 41.9072 125.396 41.5885C124.119 41.2491 123.103 40.8308 122.345 40.3324L123.9 36.9831C124.618 37.4414 125.485 37.8202 126.502 38.1189C127.519 38.3982 128.515 38.5378 129.492 38.5378C131.466 38.5378 132.453 38.0498 132.453 37.0723C132.453 36.614 132.183 36.2849 131.646 36.0858C131.107 35.8867 130.28 35.7167 129.163 35.577C127.848 35.3779 126.761 35.1484 125.904 34.8898C125.046 34.6306 124.299 34.1716 123.661 33.5141C123.043 32.856 122.734 31.9193 122.734 30.7027C122.734 29.6864 123.023 28.7891 123.601 28.0114C124.199 27.2137 125.056 26.5957 126.173 26.1574C127.309 25.7191 128.645 25.4993 130.18 25.4993C131.317 25.4993 132.443 25.6292 133.559 25.8885C134.696 26.1276 135.633 26.4664 136.371 26.9047L134.815 30.2243C133.4 29.4272 131.855 29.0283 130.18 29.0283C129.183 29.0283 128.436 29.168 127.937 29.4466C127.439 29.7259 127.19 30.0847 127.19 30.5236C127.19 31.022 127.459 31.3705 127.997 31.5702C128.535 31.7693 129.393 31.9588 130.569 32.1385C131.885 32.3576 132.961 32.5968 133.798 32.8561C134.636 33.0952 135.363 33.5439 135.981 34.202C136.599 34.8594 136.908 35.7768 136.908 36.9527C136.908 37.9495 136.61 38.8371 136.012 39.6142C135.413 40.3919 134.536 41.0002 133.38 41.4385C132.244 41.8574 130.888 42.0669 129.313 42.0669ZM148.37 41.05C147.911 41.3887 147.343 41.648 146.665 41.8277C146.007 41.9867 145.309 42.0669 144.572 42.0669C142.658 42.0669 141.173 41.5782 140.116 40.6013C139.079 39.6245 138.561 38.1887 138.561 36.2952V29.6864H136.079V26.0973H138.561V22.1803H143.226V26.0973H147.233V29.6864H143.226V36.2351C143.226 36.9133 143.396 37.4414 143.734 37.8203C144.093 38.179 144.592 38.3588 145.23 38.3588C145.967 38.3588 146.595 38.159 147.114 37.7601L148.37 41.05ZM187.837 20.8939L180.989 41.8277H175.786L171.18 27.6527L166.425 41.8277H161.252L154.374 20.8939H159.398L164.123 35.6074L169.057 20.8939H173.542L178.327 35.727L183.202 20.8939H187.837ZM193.71 25.4993C196.202 25.4993 198.116 26.0973 199.452 27.2939C200.788 28.4698 201.455 30.254 201.455 32.6466V41.8277H197.089V39.8236C196.213 41.3189 194.578 42.0669 192.185 42.0669C190.949 42.0669 189.873 41.8574 188.955 41.4385C188.058 41.0203 187.37 40.4417 186.892 39.7041C186.413 38.9664 186.174 38.1293 186.174 37.1919C186.174 35.6973 186.733 34.5207 187.849 33.6635C188.985 32.8063 190.73 32.3777 193.082 32.3777H196.791C196.791 31.3608 196.481 30.5831 195.863 30.0452C195.245 29.4867 194.318 29.2074 193.082 29.2074C192.225 29.2074 191.378 29.347 190.54 29.6263C189.723 29.8855 189.025 30.2443 188.447 30.7027L186.772 27.4432C187.649 26.8252 188.696 26.3468 189.912 26.008C191.148 25.6687 192.415 25.4993 193.71 25.4993ZM193.351 38.9264C194.149 38.9264 194.857 38.7473 195.475 38.3885C196.093 38.0097 196.531 37.4615 196.791 36.7439V35.0986H193.59C191.677 35.0986 190.72 35.727 190.72 36.9831C190.72 37.5811 190.949 38.0594 191.407 38.4182C191.886 38.757 192.534 38.9264 193.351 38.9264ZM203.884 19.6384H208.548V41.8277H203.884V19.6384ZM211.084 19.6384H215.749V41.8277H211.084V19.6384ZM234.044 33.8426C234.044 33.9027 234.015 34.3216 233.954 35.0986H221.783C222.003 36.0955 222.521 36.8829 223.338 37.4615C224.156 38.0394 225.172 38.3284 226.389 38.3284C227.226 38.3284 227.964 38.2088 228.602 37.9696C229.259 37.7104 229.868 37.3121 230.425 36.7736L232.908 39.4649C231.393 41.1993 229.18 42.0669 226.269 42.0669C224.455 42.0669 222.85 41.7178 221.454 41.0203C220.059 40.302 218.982 39.3155 218.225 38.0594C217.467 36.8034 217.088 35.3779 217.088 33.7831C217.088 32.2083 217.457 30.7925 218.195 29.5365C218.953 28.261 219.979 27.2738 221.275 26.5763C222.591 25.8581 224.056 25.4993 225.671 25.4993C227.246 25.4993 228.672 25.8387 229.947 26.5162C231.223 27.1943 232.22 28.1711 232.938 29.4466C233.675 30.7027 234.044 32.1682 234.044 33.8426ZM225.701 29.0283C224.644 29.0283 223.757 29.327 223.04 29.9256C222.321 30.5236 221.883 31.3407 221.723 32.3777H229.648C229.489 31.3608 229.05 30.5533 228.332 29.9554C227.615 29.3373 226.737 29.0283 225.701 29.0283ZM245.732 41.05C245.274 41.3887 244.706 41.648 244.028 41.8277C243.37 41.9867 242.673 42.0669 241.935 42.0669C240.021 42.0669 238.536 41.5782 237.479 40.6013C236.442 39.6245 235.924 38.1887 235.924 36.2952V29.6864H233.442V26.0973H235.924V22.1803H240.589V26.0973H244.597V29.6864H240.589V36.2351C240.589 36.9133 240.758 37.4414 241.097 37.8203C241.456 38.179 241.954 38.3588 242.593 38.3588C243.33 38.3588 243.958 38.159 244.477 37.7601L245.732 41.05Z" fill="#222222"></path></svg>